<?xml version="1.0" encoding="iso-8859-1"?>
<!-- Generator: Adobe Illustrator 19.0.0, SVG Export Plug-In . SVG Version: 6.00 Build 0)  -->
<svg version="1.1" id="Capa_1" xmlns="http://www.w3.org/2000/svg" xmlns:xlink="http://www.w3.org/1999/xlink" x="0px" y="0px"
	 viewBox="0 0 512 512" style="enable-background:new 0 0 512 512;" xml:space="preserve">
<g>
	<path style="fill:#FFCF00;" d="M272,456h49.758l12.891-64.461C357.984,388.289,376,368.211,376,344c0,2.732-0.299,5.391-0.74,8H360
		v27.528c-6.375,5.748-14.239,9.78-22.998,11.46c-0.633-0.062-1.002-0.1-1.002-0.1V352v-16v-8h-32v8c0,4.422-3.578,8-8,8
		s-8-3.578-8-8v-8h-32h-32v8c0,4.422-3.578,8-8,8s-8-3.578-8-8v-8h-32v8v16v38.889c0,0-0.369,0.038-1.002,0.1
		c-8.758-1.68-16.623-5.713-22.998-11.46V352h-15.26c-0.441-2.609-0.74-5.268-0.74-8c0,24.211,18.016,44.289,41.352,47.539
		L190.242,456H240c4.422,0,8,3.578,8,8V360c0-4.414,3.586-8,8-8s8,3.586,8,8v104C264,459.578,267.578,456,272,456z"/>
	<path style="fill:#FFCF00;" d="M152,262.888c0-13.255,10.745-24,24-24h0V280h32c0-4.422,3.578-8,8-8s8,3.578,8,8h32h32
		c0-4.422,3.578-8,8-8s8,3.578,8,8h32v-41.111h0c13.255,0,24,10.745,24,24V336h16v-96c0-30.875-25.125-56-56-56h-8v16
		c0,17.648-14.352,32-32,32h-24h-24c-17.648,0-32-14.352-32-32v-16h-8c-30.875,0-56,25.125-56,56v96h16V262.888z M240,248h32
		c4.422,0,8,3.578,8,8s-3.578,8-8,8h-32c-4.422,0-8-3.578-8-8S235.578,248,240,248z"/>
	<path style="fill:#FF9300;" d="M360,262.888c0-13.255-10.745-24-24-24h0V280h7c0.552,0,1,0.448,1,1v7v32v7c0,0.552-0.448,1-1,1h-7
		v8h24V262.888z"/>
	<path style="fill:#FF9300;" d="M336,390.888c0,0,0.369,0.038,1.002,0.1c8.758-1.68,16.623-5.713,22.998-11.46V352h-24V390.888z"/>
	<path style="fill:#FF9300;" d="M256,208v24h24c17.648,0,32-14.352,32-32v-16v-12.688C297.558,193.989,277.783,208,256,208z"/>
	<path style="fill:#FF4F19;" d="M232,232h24v-24c-21.783,0-41.558-14.011-56-36.688V184v16C200,217.648,214.351,232,232,232z"/>
	<path style="fill:#00BBBB;" d="M319.059,113.351c0.608,2.112,0.94,4.341,0.94,6.649c0,13.255-10.745,24-24,24
		c-6.556,0-12.496-2.632-16.827-6.893C273.851,141.53,266.957,144,259.57,144H256v19.25V168h8c4.422,0,8,3.578,8,8s-3.578,8-8,8h-8
		v24c21.783,0,41.558-14.011,56-36.688c14.801-23.242,24-55.589,24-91.312c0,8.382-0.542,16.559-1.507,24.496
		C329.698,108.125,324.366,110.938,319.059,113.351z"/>
	<path style="fill:#52798F;" d="M256,208v-24h-8c-4.422,0-8-3.578-8-8s3.578-8,8-8h8v-4.75V144h-3.57
		c-7.385,0-14.277-2.469-19.602-6.893C228.496,141.368,222.556,144,216,144c-13.255,0-24-10.745-24-24
		c0-2.308,0.332-4.537,0.94-6.649c-5.307-2.413-10.638-5.226-15.433-8.856C176.541,96.559,176,88.382,176,80
		c0,35.723,9.198,68.07,24,91.312C214.441,193.989,234.217,208,256,208z"/>
	<path style="fill:#00BBBB;" d="M240,456h-49.758H168c-22.055,0-40,17.945-40,40c0-2.739,0.281-5.414,0.809-8H248v-24
		C248,459.578,244.422,456,240,456z"/>
	<path style="fill:#FF4F19;" d="M240,264h32c4.422,0,8-3.578,8-8s-3.578-8-8-8h-32c-4.422,0-8,3.578-8,8S235.578,264,240,264z"/>
	<path style="fill:#5C546A;" d="M272,176c0-4.422-3.578-8-8-8h-8h-8c-4.422,0-8,3.578-8,8s3.578,8,8,8h8h8
		C268.422,184,272,180.422,272,176z"/>
	<path style="fill:#FFCF00;" d="M228.992,133.258c-6.133-7.492-16.211-11.625-26.883-16c-2.973-1.22-6.067-2.496-9.169-3.907
		c-0.608,2.112-0.94,4.341-0.94,6.649c0,13.255,10.745,24,24,24c6.556,0,12.496-2.632,16.828-6.893
		C231.437,135.952,230.148,134.671,228.992,133.258z"/>
	<path style="fill:#FFCF00;" d="M320,120c0-2.308-0.332-4.537-0.94-6.649c-3.102,1.411-6.196,2.687-9.169,3.907
		c-10.672,4.375-20.75,8.508-26.891,16.008c-1.153,1.41-2.44,2.689-3.827,3.842C283.504,141.368,289.444,144,296,144
		C309.255,144,320,133.255,320,120z"/>
	<path style="fill:#00E389;" d="M256,144h3.57c7.387,0,14.281-2.47,19.602-6.893c1.387-1.153,2.674-2.431,3.827-3.842
		c6.141-7.5,16.219-11.633,26.891-16.008c2.973-1.22,6.067-2.496,9.169-3.907c5.307-2.413,10.638-5.226,15.433-8.856
		C335.458,96.559,336,88.382,336,80c0-44.109-35.891-80-80-80v72V144z"/>
	<path style="fill:#00BBBB;" d="M192.94,113.351c3.102,1.411,6.196,2.687,9.169,3.907c10.672,4.375,20.75,8.508,26.883,16
		c1.156,1.413,2.445,2.694,3.836,3.849c5.325,4.424,12.217,6.893,19.602,6.893H256V72V0c-44.109,0-80,35.891-80,80
		c0,8.382,0.542,16.559,1.507,24.496C182.302,108.125,187.634,110.938,192.94,113.351z"/>
	<rect x="336" y="336" style="fill:#52798F;" width="24" height="16"/>
	<path style="fill:#00BBBB;" d="M360,352h15.26c0.441-2.609,0.74-5.268,0.74-8v-8h-16V352z"/>
	<path style="fill:#FF9300;" d="M168,327v-46c0-0.552,0.448-1,1-1h7v-41.111h0c-13.255,0-24,10.745-24,24V336h24v-8h-7
		C168.448,328,168,327.552,168,327z"/>
	<path style="fill:#FF9300;" d="M152,379.528c6.375,5.748,14.239,9.78,22.998,11.46c0.633-0.062,1.002-0.1,1.002-0.1V352h-24
		V379.528z"/>
	<rect x="152" y="336" style="fill:#52798F;" width="24" height="16"/>
	<path style="fill:#00BBBB;" d="M152,352v-16h-16v8c0,2.732,0.299,5.391,0.74,8H152z"/>
	<path style="fill:#52798F;" d="M128,496v8c0,4.422,3.578,8,8,8h96c8.82,0,16-7.18,16-16v-8H128.809
		C128.281,490.586,128,493.26,128,496z"/>
	<path style="fill:#00BBBB;" d="M384,496c0-22.055-17.945-40-40-40h-22.242H272c-4.422,0-8,3.578-8,8v24h119.191
		C383.718,490.586,384,493.26,384,496z"/>
	<path style="fill:#52798F;" d="M383.191,488H264v8c0,8.82,7.18,16,16,16h96c4.422,0,8-3.578,8-8v-8
		C384,493.26,383.718,490.586,383.191,488z"/>
	<rect x="224" y="280" style="fill:#52798F;" width="32" height="48"/>
	<path style="fill:#52798F;" d="M176,280h-7c-0.552,0-1,0.448-1,1v46c0,0.552,0.448,1,1,1h7h32v-48H176z"/>
	<path style="fill:#52798F;" d="M344,288v-7c0-0.552-0.448-1-1-1h-7C340.418,280,344,283.581,344,288z"/>
	<path style="fill:#52798F;" d="M344,327v-7c0,4.418-3.582,8-8,8h7C343.552,328,344,327.552,344,327z"/>
	<rect x="256" y="280" style="fill:#00BBBB;" width="32" height="48"/>
	<path style="fill:#00BBBB;" d="M344,320v-32c0-4.418-3.582-8-8-8h-32v48h32C340.418,328,344,324.418,344,320z"/>
	<path style="fill:#FF4F19;" d="M216,272c-4.422,0-8,3.578-8,8v48v8c0,4.422,3.578,8,8,8s8-3.578,8-8v-8v-48
		C224,275.578,220.422,272,216,272z"/>
	<path style="fill:#FF9300;" d="M296,272c-4.422,0-8,3.578-8,8v48v8c0,4.422,3.578,8,8,8s8-3.578,8-8v-8v-48
		C304,275.578,300.422,272,296,272z"/>
</g>
<g>
</g>
<g>
</g>
<g>
</g>
<g>
</g>
<g>
</g>
<g>
</g>
<g>
</g>
<g>
</g>
<g>
</g>
<g>
</g>
<g>
</g>
<g>
</g>
<g>
</g>
<g>
</g>
<g>
</g>
</svg>
